<svg width="22" height="21" viewBox="0 0 22 21" fill="none" xmlns="http://www.w3.org/2000/svg">
<path d="M14.9412 0H6.68694C3.33232 0 0.603149 2.72848 0.603149 6.08224V14.3344C0.603149 17.6882 3.33232 20.4167 6.68694 20.4167H14.9412C18.2959 20.4167 21.025 17.6882 21.025 14.3344V6.08224C21.025 2.72848 18.2958 0 14.9412 0ZM18.9706 14.3344C18.9706 16.5592 17.1666 18.3628 14.9412 18.3628H6.68694C4.46161 18.3628 2.65759 16.5592 2.65759 14.3344V6.08224C2.65759 3.85744 4.46161 2.05392 6.68694 2.05392H14.9412C17.1666 2.05392 18.9706 3.85744 18.9706 6.08224V14.3344Z" fill="white"/>
<path d="M10.8142 4.92786C7.90177 4.92786 5.53235 7.29667 5.53235 10.2083C5.53235 13.1199 7.90177 15.4888 10.8142 15.4888C13.7266 15.4888 16.096 13.12 16.096 10.2083C16.096 7.29664 13.7266 4.92786 10.8142 4.92786ZM10.8142 13.4349C9.03172 13.4349 7.58679 11.9903 7.58679 10.2083C7.58679 8.42634 9.03176 6.98177 10.8142 6.98177C12.5966 6.98177 14.0416 8.42634 14.0416 10.2083C14.0416 11.9903 12.5966 13.4349 10.8142 13.4349Z" fill="white"/>
<path d="M16.1061 6.23288C16.805 6.23288 17.3716 5.6664 17.3716 4.96761C17.3716 4.26881 16.805 3.70233 16.1061 3.70233C15.4071 3.70233 14.8405 4.26881 14.8405 4.96761C14.8405 5.6664 15.4071 6.23288 16.1061 6.23288Z" fill="white"/>
</svg>
