<svg width="26" height="21" viewBox="0 0 26 21" fill="none" xmlns="http://www.w3.org/2000/svg">
<path d="M24.8759 2.37509C24.3314 2.61692 23.7662 2.80769 23.1862 2.94581C23.8253 2.33757 24.3058 1.57679 24.5769 0.727626C24.6542 0.485204 24.3913 0.275575 24.1728 0.405373C23.3659 0.884712 22.4968 1.24431 21.5895 1.47428C21.5369 1.48763 21.4826 1.49439 21.4281 1.49439C21.2628 1.49439 21.1022 1.43293 20.9758 1.32138C20.0105 0.469285 18.769 6.75713e-08 17.48 6.75713e-08C16.9223 6.75713e-08 16.3591 0.087071 15.8062 0.258819C14.0931 0.790999 12.7713 2.20634 12.3566 3.95254C12.201 4.60752 12.1588 5.26309 12.2313 5.90102C12.2396 5.97432 12.205 6.02549 12.1836 6.04948C12.1462 6.09155 12.0931 6.11567 12.0379 6.11567C12.0318 6.11567 12.0254 6.11537 12.0192 6.11477C8.2692 5.76583 4.88766 3.95637 2.49741 1.01978C2.37552 0.869991 2.14179 0.888363 2.04463 1.05526C1.57656 1.85955 1.3292 2.77945 1.3292 3.7155C1.3292 5.15005 1.90464 6.50195 2.90418 7.4875C2.48385 7.38768 2.07702 7.23048 1.69911 7.02025C1.51628 6.91852 1.29132 7.04927 1.28875 7.25872C1.26258 9.38984 2.50834 11.2861 4.37454 12.14C4.33696 12.1409 4.29937 12.1413 4.26173 12.1413C3.96592 12.1413 3.6664 12.1127 3.37159 12.0563C3.1657 12.0169 2.99273 12.2126 3.05666 12.4125C3.66239 14.3066 5.29067 15.7027 7.23919 16.0197C5.62203 17.107 3.73881 17.6805 1.77875 17.6805L1.1677 17.6801C0.979433 17.6801 0.820203 17.803 0.772224 17.9857C0.724963 18.1656 0.812017 18.3553 0.972562 18.4489C3.18124 19.7363 5.70054 20.4167 8.25922 20.4167C10.4989 20.4167 12.5939 19.9715 14.4862 19.0936C16.2209 18.2888 17.7538 17.1383 19.0423 15.6741C20.2427 14.3102 21.1813 12.7357 21.8321 10.9944C22.4525 9.33454 22.7804 7.56344 22.7804 5.87253V5.79198C22.7803 5.52048 22.9029 5.26501 23.1168 5.09111C23.9285 4.43104 24.6353 3.65405 25.2176 2.78172C25.3713 2.55139 25.1289 2.26271 24.8759 2.37509Z" fill="white"/>
</svg>
